<svg xmlns="http://www.w3.org/2000/svg" width="155" height="43" viewBox="0 0 155 43"><path d="M0,0H51.263V19.221H0Z" transform="translate(0 10.172)" fill="#c41e3d"/><path d="M1.44,6.524V-12.882H6.589v7.225H12.4v-7.225h5.149V5.183L16.381,6.524H12.4v-7.7H6.589v7.7Zm28.619.358a9.593,9.593,0,0,1-3.7-.687,7.848,7.848,0,0,1-2.844-1.985,9.122,9.122,0,0,1-1.841-3.195,13.009,13.009,0,0,1-.659-4.284,12.743,12.743,0,0,1,.659-4.254,8.847,8.847,0,0,1,1.841-3.135,7.7,7.7,0,0,1,2.844-1.926,9.978,9.978,0,0,1,3.7-.657,10.01,10.01,0,0,1,3.682.657A7.6,7.6,0,0,1,36.6-10.643a9.026,9.026,0,0,1,1.841,3.135,12.612,12.612,0,0,1,.659,4.24,13.009,13.009,0,0,1-.659,4.284A9.122,9.122,0,0,1,36.6,4.211,7.82,7.82,0,0,1,33.741,6.2,9.624,9.624,0,0,1,30.059,6.883Zm0-4.419A3.139,3.139,0,0,0,32.828.927a7.61,7.61,0,0,0,1-4.195,7.155,7.155,0,0,0-1-4.105,3.187,3.187,0,0,0-2.769-1.448A3.187,3.187,0,0,0,27.29-7.373a7.155,7.155,0,0,0-1,4.105,7.61,7.61,0,0,0,1,4.195A3.139,3.139,0,0,0,30.059,2.464Zm15.327,4.06V-7.739l-.924-.843H40.237v-4.3H55.684v2.426l-1.6,1.873H50.535V6.524Zm13.172,0V-12.882h7.005a17.532,17.532,0,0,1,2.874.224,7.4,7.4,0,0,1,2.335.761,4.15,4.15,0,0,1,1.572,1.478,4.429,4.429,0,0,1,.584,2.374,4.694,4.694,0,0,1-.18,1.269,5.935,5.935,0,0,1-.494,1.224,4.389,4.389,0,0,1-.763,1.03,2.8,2.8,0,0,1-1.018.657v.119a5.062,5.062,0,0,1,2.38,1.508,4.391,4.391,0,0,1,.973,3.03,5.179,5.179,0,0,1-.614,2.583,5.253,5.253,0,0,1-1.646,1.791,7.217,7.217,0,0,1-2.44,1.03,13,13,0,0,1-2.964.328ZM63.707-5.3h1.736A2.718,2.718,0,0,0,67.3-5.836a1.831,1.831,0,0,0,.6-1.433,1.414,1.414,0,0,0-.6-1.284,3.482,3.482,0,0,0-1.856-.388H63.707Zm0,7.882h2.1q2.994,0,2.994-2.15a1.641,1.641,0,0,0-.733-1.523,4.45,4.45,0,0,0-2.26-.448h-2.1ZM76.879,6.524V-12.882H89.453V-9.6l-1.1,1.02H82.028v3.045h6.346V-2.2l-.936.961h-5.41V2.225h7.724V5.359L88.441,6.524ZM98.553-2.91l-.329,1.344L103.7,6.524,101.487-2.91q-.359-1.4-.718-3.045t-.718-3.1h-.12q-.329,1.493-.674,3.12T98.553-2.91ZM91.069,6.524,97-12.882h6.227l5.927,19.406H103.7L98.224-1.566,96.338,6.524Zm19.938,0V-12.882h5.269l4.311,8.658L122.442.135h.12q-.09-.776-.21-1.7t-.21-1.9q-.09-.97-.165-1.941T121.9-7.269v-5.613h3.766l1.143,1.143V6.524h-5.269l-4.311-8.688-1.856-4.329h-.12q.18,1.672.419,3.642a31.218,31.218,0,0,1,.239,3.762V6.524Zm26.284.358a11.743,11.743,0,0,1-3.817-.672,10.165,10.165,0,0,1-3.547-2.1L132.86.583a9.88,9.88,0,0,0,2.26,1.358,5.8,5.8,0,0,0,2.29.522,3.073,3.073,0,0,0,1.691-.358,1.158,1.158,0,0,0,.524-1.015.965.965,0,0,0-.18-.6,1.837,1.837,0,0,0-.524-.448,5.769,5.769,0,0,0-.823-.4q-.479-.194-1.108-.433l-2.425-1.015a7.207,7.207,0,0,1-1.5-.791,5.824,5.824,0,0,1-1.257-1.164,5.357,5.357,0,0,1-.853-1.538,5.563,5.563,0,0,1-.314-1.911,5.216,5.216,0,0,1,.539-2.344,6,6,0,0,1,1.5-1.911,7.225,7.225,0,0,1,2.29-1.3,8.591,8.591,0,0,1,2.919-.478,9.882,9.882,0,0,1,3.4.627,8.358,8.358,0,0,1,3.068,1.97l-2.575,3.224a9.353,9.353,0,0,0-1.9-1.045,5.4,5.4,0,0,0-1.991-.358,2.877,2.877,0,0,0-1.5.328,1.079,1.079,0,0,0-.539.985,1.158,1.158,0,0,0,.763,1.06q.763.373,2.11.881l2.365.926a6.389,6.389,0,0,1,2.814,2,5.281,5.281,0,0,1,.988,3.314A5.748,5.748,0,0,1,142.9,5.017a7.368,7.368,0,0,1-2.38,1.358A9.5,9.5,0,0,1,137.291,6.883Z" transform="translate(4.217 13.24)" fill="#fff"/><text transform="translate(31 37)" fill="#fff" font-size="16" font-family="Montserrat-Regular, Montserrat"><tspan x="0" y="0">Digital Agency</tspan></text></svg>